<svg xmlns="http://www.w3.org/2000/svg" width="4" height="8.007" viewBox="0 0 4 8.007" fill="none">
  <path d="M 0 0 L 0 8.007 L 4 4.007 L 0 0 Z" fill="currentColor" fill-rule="evenodd"/>
  <path d="M 0 0 L 0.354 -0.353 C 0.211 -0.496 -0.004 -0.539 -0.191 -0.462 C -0.378 -0.385 -0.5 -0.202 -0.5 0 L 0 0 Z M 0 8.007 L -0.5 8.007 C -0.5 8.209 -0.378 8.392 -0.191 8.469 C -0.005 8.546 0.211 8.504 0.354 8.361 L 0 8.007 Z M 4 4.007 L 4.354 4.361 C 4.549 4.165 4.549 3.849 4.354 3.654 L 4 4.007 Z M 0 0 L -0.5 0 L -0.5 8.007 L 0 8.007 L 0.5 8.007 L 0.5 0 L 0 0 Z M 0 8.007 L 0.354 8.361 L 4.354 4.361 L 4 4.007 L 3.646 3.654 L -0.354 7.654 L 0 8.007 Z M 4 4.007 L 4.354 3.654 L 0.354 -0.353 L 0 0 L -0.354 0.353 L 3.646 4.36 L 4 4.007 Z" fill="currentColor" fill-rule="nonzero"/>
</svg>
